<?xml version="1.0" encoding="UTF-8"?>
<svg width="63px" height="56px" viewBox="0 0 63 56" version="1.1" xmlns="http://www.w3.org/2000/svg" xmlns:xlink="http://www.w3.org/1999/xlink">
    <!-- Generator: Sketch 46.2 (44496) - http://www.bohemiancoding.com/sketch -->
    <title>Group 3</title>
    <desc>Created with Sketch.</desc>
    <defs></defs>
    <g id="Page-1" stroke="none" stroke-width="1" fill="none" fill-rule="evenodd">
        <g id="landing" transform="translate(-271.000000, -1446.000000)" fill-rule="nonzero" fill="#601F2E">
            <g id="Group-3" transform="translate(271.000000, 1446.000000)">
                <path d="M63,36 L63,42.4714672 C63,49.9430696 57.0517831,56 49.7142857,56 L13.2857143,56 C5.9482169,56 8.98584269e-16,49.9430696 0,42.4714672 L0,36.0444305 L4.28571328,36.041408 L4.28571429,42.4714672 C4.28571429,47.5328753 8.31515154,51.6359572 13.2857143,51.6359572 L49.7142857,51.6359572 C54.6848485,51.6359572 58.7142857,47.5328753 58.7142857,42.4714672 L58.7142857,36.0030225 L63,36 Z M63,36 L63,42.4714672 C63,49.9430696 57.0517831,56 49.7142857,56 L13.2857143,56 C5.9482169,56 8.98584269e-16,49.9430696 0,42.4714672 L0,36.0444305 L4.28571328,36.041408 L4.28571429,42.4714672 C4.28571429,47.5328753 8.31515154,51.6359572 13.2857143,51.6359572 L49.7142857,51.6359572 C54.6848485,51.6359572 58.7142857,47.5328753 58.7142857,42.4714672 L58.7142857,36.0030225 L63,36 Z" id="Rectangle-6"></path>
                <path d="M43.2005779,26.1132646 C44.0843727,25.238488 45.4757525,25.238488 46.3595473,26.1132646 C47.2134842,26.9880412 47.2134842,28.3652234 46.3595473,29.24 L33.1225299,42.3439175 C32.7124809,42.7497824 32.1431897,43 31.512192,43 C30.8811943,43 30.311903,42.7497824 29.8998636,42.3439175 L16.6628461,29.24 C15.7790513,28.3652234 15.7790513,26.9880412 16.6628461,26.1132646 C17.546641,25.238488 18.9380207,25.238488 19.8218156,26.1132646 L29.2688659,35.495441 L29.2688659,2.1889118 C29.2668754,0.969347079 30.2780641,0 31.5102015,0 C32.7423389,0 33.7216791,0.969347079 33.7216791,2.1889118 L33.7216791,35.4934708 L43.2005779,26.1132646 Z" id="Shape"></path>
            </g>
        </g>
    </g>
</svg>