<?xml version="1.0" encoding="UTF-8"?>
<svg width="74px" height="46px" viewBox="0 0 74 46" version="1.1" xmlns="http://www.w3.org/2000/svg" xmlns:xlink="http://www.w3.org/1999/xlink">
    <!-- Generator: Sketch 46.2 (44496) - http://www.bohemiancoding.com/sketch -->
    <title>Group</title>
    <desc>Created with Sketch.</desc>
    <defs></defs>
    <g id="Page-1" stroke="none" stroke-width="1" fill="none" fill-rule="evenodd">
        <g id="landing" transform="translate(-600.000000, -1778.000000)" fill-rule="nonzero" fill="#601F2E">
            <g id="Group" transform="translate(600.000000, 1778.000000)">
                <path d="M72.457329,7.19020716 L7.04807818,7.19020716 L2.72859935,0.721908349 C2.26579805,-0.0481272233 1.34019544,-0.202134338 0.723127036,0.259887006 C-0.0482084691,0.721908349 -0.20247557,1.64595104 0.260325733,2.41598661 L5.04260586,9.65432099 C5.35114007,10.1163423 5.81394137,10.4243566 6.27674267,10.4243566 L12.2931596,10.4243566 L12.2931596,34.4494664 C9.82488599,35.0654949 7.97368078,37.3756016 7.97368078,40.1477297 C7.97368078,43.3818791 10.5962215,46 13.8358306,46 C17.0754397,46 19.6979805,43.3818791 19.6979805,40.1477297 C19.6979805,37.3756016 17.8467752,35.219502 15.3785016,34.4494664 L15.3785016,30.1372672 L60.7330293,30.1372672 L60.7330293,34.4494664 C58.2647557,35.0654949 56.4135505,37.3756016 56.4135505,40.1477297 C56.4135505,43.3818791 59.0360912,46 62.2757003,46 C65.5153094,46 68.1378502,43.3818791 68.1378502,40.1477297 C68.1378502,37.3756016 66.286645,35.219502 63.8183713,34.4494664 L63.8183713,10.2703494 L72.457329,10.2703494 C73.3829316,10.2703494 74,9.65432099 74,8.7302783 C74,7.96024273 73.3829316,7.19020716 72.457329,7.19020716 Z M16.6126384,39.9937225 C16.6126384,41.5337937 15.3785016,42.7658506 13.8358306,42.7658506 C12.2931596,42.7658506 11.0590228,41.5337937 11.0590228,39.9937225 C11.0590228,38.4536514 12.2931596,37.2215945 13.8358306,37.2215945 C15.3785016,37.2215945 16.6126384,38.4536514 16.6126384,39.9937225 Z M65.0525081,39.9937225 C65.0525081,41.5337937 63.8183713,42.7658506 62.2757003,42.7658506 C60.7330293,42.7658506 59.4988925,41.5337937 59.4988925,39.9937225 C59.4988925,38.4536514 60.7330293,37.2215945 62.2757003,37.2215945 C63.8183713,37.2215945 65.0525081,38.4536514 65.0525081,39.9937225 Z M60.5787622,26.9031178 L15.3785016,26.9031178 L15.3785016,10.2703494 L60.7330293,10.2703494 L60.7330293,26.9031178 L60.5787622,26.9031178 Z" id="Shape"></path>
                <path d="M10.5,5 L19.5,5 C20.4,5 21,4.4 21,3.5 C21,2.6 20.4,2 19.5,2 L10.5,2 C9.6,2 9,2.6 9,3.5 C9,4.4 9.75,5 10.5,5 Z" id="Shape"></path>
            </g>
        </g>
    </g>
</svg>