<?xml version="1.0" encoding="UTF-8"?>
<svg width="32px" height="44px" viewBox="0 0 32 44" version="1.1" xmlns="http://www.w3.org/2000/svg" xmlns:xlink="http://www.w3.org/1999/xlink">
    <!-- Generator: Sketch 46.2 (44496) - http://www.bohemiancoding.com/sketch -->
    <title>icn-arrow-point-to-right</title>
    <desc>Created with Sketch.</desc>
    <defs></defs>
    <g id="Page-1" stroke="none" stroke-width="1" fill="none" fill-rule="evenodd">
        <g id="landing" transform="translate(-623.000000, -640.000000)" fill-rule="nonzero" fill="#FFFFFF">
            <g id="icn-arrow-point-to-right" transform="translate(639.000000, 662.000000) rotate(90.000000) translate(-639.000000, -662.000000) translate(617.000000, 646.000000)">
                <path d="M43.3523845,17.2178278 L29.7748219,30.6902451 C28.911125,31.5476961 27.5107884,31.5476961 26.6475107,30.6902451 C25.7841631,29.8335569 25.7841631,28.444091 26.6475107,27.5874721 L38.6615574,15.6664413 L26.6478601,3.74582657 C25.7845125,2.88879163 25.7845125,1.49946442 26.6478601,0.642776205 C27.5112077,-0.214258735 28.9114744,-0.214258735 29.7751714,0.642776205 L43.3527339,14.1154015 C43.7844077,14.5439537 44,15.1050241 44,15.666372 C44,16.2279972 43.7839884,16.7894837 43.3523845,17.2178278 Z" id="Shape"></path>
                <path d="M30.3523845,17.2178278 L16.7748219,30.6902451 C15.911125,31.5476961 14.5107884,31.5476961 13.6475107,30.6902451 C12.7841631,29.8335569 12.7841631,28.444091 13.6475107,27.5874721 L25.6615574,15.6664413 L13.6478601,3.74582657 C12.7845125,2.88879163 12.7845125,1.49946442 13.6478601,0.642776205 C14.5112077,-0.214258735 15.9114744,-0.214258735 16.7751714,0.642776205 L30.3527339,14.1154015 C30.7844077,14.5439537 31,15.1050241 31,15.666372 C31,16.2279972 30.7839884,16.7894837 30.3523845,17.2178278 Z" id="Shape-Copy" opacity="0.5"></path>
                <path d="M17.3523845,17.2178278 L3.77482194,30.6902451 C2.91112496,31.5476961 1.51078835,31.5476961 0.647510672,30.6902451 C-0.215836891,29.8335569 -0.215836891,28.444091 0.647510672,27.5874721 L12.6615574,15.6664413 L0.647860092,3.74582657 C-0.21548747,2.88879163 -0.21548747,1.49946442 0.647860092,0.642776205 C1.51120765,-0.214258735 2.91147438,-0.214258735 3.77517136,0.642776205 L17.3527339,14.1154015 C17.7844077,14.5439537 18,15.1050241 18,15.666372 C18,16.2279972 17.7839884,16.7894837 17.3523845,17.2178278 Z" id="Shape-Copy-2" opacity="0.3"></path>
            </g>
        </g>
    </g>
</svg>