<?xml version="1.0" encoding="UTF-8"?>
<svg width="55px" height="73px" viewBox="0 0 55 73" version="1.1" xmlns="http://www.w3.org/2000/svg" xmlns:xlink="http://www.w3.org/1999/xlink">
    <!-- Generator: Sketch 46.2 (44496) - http://www.bohemiancoding.com/sketch -->
    <title>invoice</title>
    <desc>Created with Sketch.</desc>
    <defs></defs>
    <g id="Page-1" stroke="none" stroke-width="1" fill="none" fill-rule="evenodd">
        <g id="landing" transform="translate(-945.000000, -1765.000000)" fill-rule="nonzero" fill="#601F2E">
            <g id="invoice" transform="translate(945.000000, 1765.000000)">
                <path d="M54.5524089,15.6539375 L39.2745833,0.445556641 C38.988125,0.160400391 38.6002604,0 38.194349,0 L6.11101563,0 C2.74226563,0 0,2.72823242 0,6.08338086 L0,66.9167617 C0,70.2717676 2.74226563,73 6.11115885,73 L48.8889844,73 C52.2577344,73 55,70.2717676 55,66.9166191 L55,16.7291191 C55,16.3251953 54.8388672,15.9390937 54.5524089,15.6539375 Z M39.7221745,5.19226758 L49.7840234,15.2083809 L42.7776823,15.2083809 C41.0917318,15.2083809 39.7221745,13.8434805 39.7221745,12.1667617 L39.7221745,5.19226758 L39.7221745,5.19226758 Z M51.9444922,66.9166191 C51.9444922,68.5933379 50.5747917,69.9582383 48.8889844,69.9582383 L6.11115885,69.9582383 C4.42520833,69.9582383 3.05565104,68.5933379 3.05565104,66.9166191 L3.05565104,6.08338086 C3.05565104,4.40666211 4.42535156,3.04176172 6.11115885,3.04176172 L36.6666667,3.04176172 L36.6666667,12.1667617 C36.6666667,15.5217676 39.4089323,18.25 42.7778255,18.25 L51.9444922,18.25 L51.9444922,66.9166191 Z" id="Shape"></path>
                <path d="M43.4998184,43 L10.500041,43 C9.67091925,43 9,43.8945345 9,45 C9,46.1054655 9.67091925,47 10.500041,47 L43.499959,47 C44.3290807,47 45,46.1054655 45,45 C44.9998594,43.8945345 44.3289401,43 43.4998184,43 Z" id="Shape"></path>
                <path d="M43.4998184,34 L10.500041,34 C9.67091925,34 9,34.8945345 9,36 C9,37.1054655 9.67091925,38 10.500041,38 L43.499959,38 C44.3290807,38 45,37.1054655 45,36 C44.9998594,34.8945345 44.3289401,34 43.4998184,34 Z" id="Shape"></path>
                <path d="M43.4998184,52 L10.500041,52 C9.67091925,52 9,52.8945345 9,54 C9,55.1054655 9.67091925,56 10.500041,56 L43.499959,56 C44.3290807,56 45,55.1054655 45,54 C44.9998594,52.8945345 44.3289401,52 43.4998184,52 Z" id="Shape"></path>
                <path d="M30.3570989,62 L10.6429011,62 C9.73481592,62 9,62.8945345 9,64 C9,65.1054655 9.73481592,66 10.6429011,66 L30.3570989,66 C31.2651841,66 32,65.1054655 32,64 C31.999846,62.8945345 31.2651841,62 30.3570989,62 Z" id="Shape"></path>
                <path d="M25,27 C25,28.1054655 25.7348159,29 26.6429011,29 L46.3570989,29 C47.2651841,29 48,28.1054655 48,27 C48,25.8945345 47.2651841,25 46.3570989,25 L26.6429011,25 C25.7348159,25.0001875 25,25.894722 25,27 Z" id="Shape"></path>
                <path d="M13.5,24.4999648 L10.5000469,24.4999648 C9.67092188,24.4999648 9,25.170871 9,25.9999766 C9,26.8290821 9.67092187,27.4999883 10.5000469,27.4999883 L12.0000938,27.4999883 C12.0000938,28.3290938 12.6710156,29 13.5001406,29 C14.3292656,29 15.0001875,28.3290938 15.0001875,27.4999883 L15.0001875,27.2236666 C16.74225,26.6022593 18,24.9529074 18,22.9999531 C18,20.5185425 15.9814688,18.5000586 13.5,18.5000586 C12.6738281,18.5000586 11.9999531,17.8277462 11.9999531,17.0000469 C11.9999531,16.1724881 12.6738281,15.5000352 13.5,15.5000352 L16.4999531,15.5000352 C17.3290781,15.5000352 18,14.829129 18,14.0000234 C18,13.1709179 17.3290781,12.5000117 16.4999531,12.5000117 L14.9999062,12.5000117 C14.9999062,11.6709062 14.3289844,11 13.4998594,11 C12.6707344,11 11.9998125,11.6709062 11.9998125,12.5000117 L11.9998125,12.7763334 C10.25775,13.3977407 9,15.0470926 9,17.0000469 C9,19.4814575 11.0185312,21.4999414 13.5,21.4999414 C14.3261719,21.4999414 15.0000469,22.1722538 15.0000469,22.9999531 C15.0000469,23.8276525 14.3261719,24.4999648 13.5,24.4999648 Z" id="Shape"></path>
            </g>
        </g>
    </g>
</svg>