<?xml version="1.0" encoding="UTF-8"?>
<svg width="64px" height="65px" viewBox="0 0 64 65" version="1.1" xmlns="http://www.w3.org/2000/svg" xmlns:xlink="http://www.w3.org/1999/xlink">
    <!-- Generator: Sketch 46.2 (44496) - http://www.bohemiancoding.com/sketch -->
    <title>noun_1062388_cc</title>
    <desc>Created with Sketch.</desc>
    <defs></defs>
    <g id="Page-1" stroke="none" stroke-width="1" fill="none" fill-rule="evenodd">
        <g id="landing" transform="translate(-608.000000, -1446.000000)" fill-rule="nonzero" fill="#601F2E">
            <g id="noun_1062388_cc" transform="translate(608.000000, 1446.000000)">
                <g id="Group" transform="translate(0.000000, 0.637820)">
                    <path d="M31.9999998,0 C14.3521547,0 -2.91777712e-06,14.3521435 -2.91777712e-06,32.0000171 C-2.91777712e-06,49.6478765 14.3521547,64.00002 31.9999998,64.00002 C49.647845,64.00002 64.0000027,49.6478765 64.0000027,32.0000171 C64.0000027,14.3521435 49.647845,8.08439808e-14 31.9999998,8.08439808e-14 L31.9999998,0 Z M31.9999998,4.26666705 C47.3419674,4.26666705 59.7333357,16.6580637 59.7333357,32.0000171 C59.7333357,38.3353066 57.6056199,44.157956 54.0444463,48.8222053 L54.0444463,46.2222406 C54.0444463,40.3498134 49.2502058,35.555573 43.3777786,35.555573 L20.622221,35.555573 C14.7497938,35.555573 9.95555339,40.3498134 9.95555339,46.2222406 L9.95555339,48.8222053 C6.39437974,44.157956 4.26666399,38.3353066 4.26666399,32.0000171 C4.26666399,16.6580637 16.6580322,4.26666705 31.9999998,4.26666705 Z M31.9999998,6.40000058 C25.184049,6.40000058 19.9111098,12.6185256 19.9111098,19.9111129 C19.9111098,27.2037073 25.184049,33.4222395 31.9999998,33.4222395 C38.8159507,33.4222395 44.0888898,27.2037073 44.0888898,19.9111129 C44.0888898,12.6185256 38.8159507,6.40000058 31.9999998,6.40000058 Z M31.9999998,10.6666676 C36.180658,10.6666676 39.8222228,14.6361613 39.8222228,19.9111129 C39.8222228,25.1860716 36.180658,29.1555653 31.9999998,29.1555653 C27.8193417,29.1555653 24.1777769,25.1860716 24.1777769,19.9111129 C24.1777769,14.6361613 27.8193417,10.6666676 31.9999998,10.6666676 Z M20.622221,39.82224 L43.3777786,39.82224 C46.9602714,39.82224 49.7777792,42.6397336 49.7777792,46.2222406 L49.7777792,53.2889079 C44.9668134,57.307895 38.7742013,59.7333529 31.9999998,59.7333529 C25.2257983,59.7333529 19.0331862,57.307895 14.2222204,53.2889079 L14.2222204,46.2222406 C14.2222204,42.6397336 17.0397283,39.82224 20.622221,39.82224 L20.622221,39.82224 Z" id="Shape"></path>
                </g>
            </g>
        </g>
    </g>
</svg>