<?xml version="1.0" encoding="UTF-8"?>
<svg width="53px" height="62px" viewBox="0 0 53 62" version="1.1" xmlns="http://www.w3.org/2000/svg" xmlns:xlink="http://www.w3.org/1999/xlink">
    <!-- Generator: Sketch 46.2 (44496) - http://www.bohemiancoding.com/sketch -->
    <title>noun_1102187_cc</title>
    <desc>Created with Sketch.</desc>
    <defs></defs>
    <g id="Page-1" stroke="none" stroke-width="1" fill="none" fill-rule="evenodd">
        <g id="landing" transform="translate(-946.000000, -1490.000000)" stroke="#601F2E" fill-rule="nonzero" fill="#601F2E">
            <g id="icn/urgencia" transform="translate(898.000000, 1462.000000)">
                <g id="noun_1102187_cc" transform="translate(49.000000, 29.000000)">
                    <path d="M46.2513437,21.3096091 C44.8378813,21.2096339 43.4244188,21.6095346 42.4148028,22.5093111 C42.0109564,20.109907 40.092686,18.2103788 37.6696076,17.9104533 C36.2561451,17.8104781 34.8426827,18.2103788 33.8330667,19.1101553 C33.4292203,16.7107512 31.5109499,14.811223 29.0878715,14.5112975 C27.674409,14.4113223 26.3619082,14.811223 25.2513306,15.6110244 L25.2513306,5.41355697 C25.2513306,2.6142522 23.131137,0.214848111 20.4051738,0.0148977707 C18.8907497,-0.0850773997 17.3763257,0.314823282 16.2657481,1.31457499 C15.1551705,2.31432669 14.5494009,3.71397907 14.5494009,5.21360663 L14.5494009,37.3056363 L9.19843602,32.0069523 C7.179204,30.0074489 4.04939436,29.8074985 1.92920073,31.5070764 C0.81862312,32.406853 0.111891911,33.8065054 0.0109303099,35.3061329 C-0.0900312913,36.8057605 0.515738316,38.2054129 1.52535433,39.3051397 L16.4676713,54.1014649 C20.3042122,57.9005214 25.3522922,60 30.8042187,60 C42.0109564,60 50.9965389,51.0022347 50.9965389,40.0049659 L50.9965389,26.8082434 C51.0975005,24.0089387 48.9773069,21.6095346 46.2513437,21.3096091 Z M49.0782685,40.0049659 C49.0782685,49.9025078 40.9003788,58.0004966 30.9051803,58.0004966 C26.0590234,58.0004966 21.5157514,56.1009684 17.9820953,52.7018126 L3.03977835,37.9054873 C2.43400874,37.3056363 2.03016233,36.4058598 2.03016233,35.4061081 C2.03016233,34.5063316 2.53497034,33.606555 3.24170155,33.006704 C3.84747116,32.5068281 4.55420236,32.3068778 5.26093357,32.3068778 C6.16958798,32.3068778 7.0782424,32.7067785 7.7849736,33.3066295 L14.9532473,40.4048666 C15.2561321,40.7047921 15.6599785,40.8047673 16.0638249,40.6048169 C16.4676713,40.4048666 16.6695945,40.1049411 16.6695945,39.7050404 L16.6695945,5.3135818 C16.6695945,4.41380527 17.0734409,3.51402873 17.7801721,2.91417771 C18.4869033,2.31432669 19.3955577,2.01440118 20.3042122,2.11437635 C21.9195978,2.31432669 23.2320986,3.81395425 23.2320986,5.51353214 L23.2320986,19.8099815 L23.2320986,35.2061577 C23.2320986,35.8060088 23.635945,36.2059094 24.2417146,36.2059094 C24.8474842,36.2059094 25.2513306,35.8060088 25.2513306,35.2061577 L25.2513306,19.8099815 C25.2513306,18.910205 25.655177,18.0104284 26.3619082,17.4105774 C27.0686394,16.8107264 27.9772938,16.5108009 28.8859483,16.6107761 C30.5013339,16.8107264 31.8138347,18.310354 31.8138347,20.0099318 L31.8138347,23.2091373 L31.8138347,35.1061826 C31.8138347,35.7060336 32.2176811,36.1059343 32.8234507,36.1059343 C33.4292203,36.1059343 33.8330667,35.7060336 33.8330667,35.1061826 L33.8330667,23.2091373 C33.8330667,22.3093608 34.2369131,21.4095842 34.9436443,20.8097332 C35.6503755,20.2098822 36.55903,19.9099567 37.4676844,20.0099318 C39.08307,20.2098822 40.3955708,21.7095097 40.3955708,23.4090876 L40.3955708,26.6082931 L40.3955708,35.1061826 C40.3955708,35.7060336 40.7994172,36.1059343 41.4051868,36.1059343 C42.0109564,36.1059343 42.4148028,35.7060336 42.4148028,35.1061826 L42.4148028,26.6082931 C42.4148028,25.7085166 42.8186492,24.80874 43.5253804,24.208889 C44.2321116,23.609038 45.1407661,23.3091125 46.0494205,23.4090876 C47.6648061,23.609038 48.9773069,25.1086655 48.9773069,26.8082434 L48.9773069,40.0049659 L49.0782685,40.0049659 Z" id="Shape"></path>
                </g>
            </g>
        </g>
    </g>
</svg>