<?xml version="1.0" encoding="UTF-8"?>
<svg width="54px" height="72px" viewBox="0 0 54 72" version="1.1" xmlns="http://www.w3.org/2000/svg" xmlns:xlink="http://www.w3.org/1999/xlink">
    <!-- Generator: Sketch 46.2 (44496) - http://www.bohemiancoding.com/sketch -->
    <title>veterinarian</title>
    <desc>Created with Sketch.</desc>
    <defs></defs>
    <g id="Page-1" stroke="none" stroke-width="1" fill="none" fill-rule="evenodd">
        <g id="landing" transform="translate(-277.000000, -1765.000000)" fill-rule="nonzero" fill="#601F2E">
            <g id="veterinarian" transform="translate(277.000000, 1765.000000)">
                <path d="M12.3844798,29.5391601 C14.0963262,30.5656012 16.0154852,31.0789024 17.9349636,31.0789024 C19.8542823,31.0789024 21.7736011,30.5656012 23.4854475,29.5389989 C27.3664099,27.2117327 29.5543725,22.7153499 29.5599626,17.1220761 C29.5602821,16.8459187 29.55581,15.1875239 29.55581,15.1875239 L29.55581,5.3930477 C29.55581,2.42818535 27.1559029,0 24.2185483,0 L11.6507401,0 C8.71322571,0 6.39685062,2.42818535 6.39685062,5.3930477 L6.39685062,14.3276155 C6.39685062,14.3276155 6.32354053,17.5974922 6.35771996,18.2308969 C6.63051653,23.3084514 8.76353655,27.368109 12.3844798,29.5391601 Z M21.8539387,26.7311577 C19.436303,28.1807821 16.4329853,28.1627263 14.0159885,26.7134243 C11.248413,25.0537398 9.6416604,21.7637115 9.51308825,17.5721819 L26.3563598,17.5721819 C26.2277877,21.7637115 24.6213545,25.0717956 21.8539387,26.7311577 Z M9.59118984,5.3930477 C9.59118984,4.20603876 10.4747441,3.22425355 11.6508998,3.22425355 L24.218708,3.22425355 C25.394704,3.22425355 26.3616305,4.20603876 26.3616305,5.3930477 L26.3616305,14.3479283 L9.59134956,14.3479283 L9.59134956,5.3930477 L9.59118984,5.3930477 Z M21.541692,8.86669727 C21.541692,9.75691367 20.8266392,10.478824 19.9445224,10.478824 L19.3339245,10.478824 L19.3339245,11.0151786 C19.3339245,11.9055562 18.6190314,12.6274666 17.7370743,12.6276278 C16.8549575,12.627789 16.1395853,11.9060399 16.1395853,11.0158235 L16.1395853,10.478824 L15.6142762,10.478824 C14.7323191,10.478824 14.0171066,9.75707489 14.0171066,8.86669727 C14.0171066,7.97648086 14.7321594,7.25457049 15.6142762,7.25457049 L16.1395853,7.25457049 L16.1395853,6.64502536 C16.1395853,5.75464774 16.8544784,5.03273737 17.7364354,5.03257616 C18.6185522,5.03241494 19.3339245,5.7541641 19.3339245,6.64438051 L19.3339245,7.25457049 L19.9445224,7.25457049 C20.8264795,7.25457049 21.541692,7.97631965 21.541692,8.86669727 Z M26.1325964,65.6135598 C26.1325964,66.5037762 25.4173838,67.2256866 24.5354268,67.2256866 L1.59719622,67.2256866 C1.12267713,67.2256866 0.672754445,67.0296519 0.369292219,66.6614422 C0.0659897097,66.2932324 -0.0597075388,65.8249096 0.0266993372,65.3540074 L3.79074896,44.8422735 C4.76933478,39.5090357 9.12625377,35.5988223 15.1614786,34.6376723 C18.1764557,34.1570973 21.3439624,34.4788778 24.0808723,35.5433651 C27.1196472,36.7253764 29.4633339,38.7245749 30.8583018,41.3259026 C31.2783574,42.1087514 30.9897489,43.0860226 30.2140036,43.5098508 C29.4385777,43.9340013 28.4690958,43.6405942 28.0491999,42.8574231 C25.6686186,38.4185932 19.9576192,37.1293754 15.6594761,37.8142069 C10.9302568,38.5673925 7.66755876,41.4026399 6.93174272,45.412644 L3.51731352,64.001433 L24.5354268,64.001433 C25.4173838,64.001433 26.1325964,64.7231822 26.1325964,65.6135598 Z M38.4205805,54.461834 C40.8925199,54.461834 42.9033564,52.1394042 42.9033564,49.2848113 C42.9033564,46.4302184 40.8925199,44.1077886 38.4205805,44.1077886 C35.9486411,44.1077886 33.9378045,46.4302184 33.9378045,49.2848113 C33.9378045,52.1394042 35.9488008,54.461834 38.4205805,54.461834 Z M38.4205805,47.3320421 C39.0299007,47.3320421 39.7090172,48.1340752 39.7090172,49.2848113 C39.7090172,50.4355474 39.0299007,51.2375805 38.4205805,51.2375805 C37.8112603,51.2375805 37.1321438,50.4355474 37.1321438,49.2848113 C37.1321438,48.1340752 37.8112603,47.3320421 38.4205805,47.3320421 Z M31.9057256,52.2691804 C31.2965652,49.8850061 29.306971,48.1545492 27.175069,48.1545492 C26.8888562,48.1545492 26.6026434,48.1855021 26.3244164,48.2469241 C25.2551114,48.4824558 24.3359403,49.1540678 23.7362031,50.1376264 C23.0171573,51.3168971 22.8210249,52.8385836 23.1976375,54.3119062 C23.806798,56.6960805 25.7963922,58.4265374 27.9279747,58.4266986 C27.9279747,58.4266986 27.9279747,58.4266986 27.9281344,58.4266986 C28.2143472,58.4266986 28.50056,58.3955846 28.7789467,58.3341625 C29.848092,58.0986308 30.7671034,57.42718 31.3670003,56.4434603 C32.0860461,55.2638671 32.282498,53.7423418 31.9057256,52.2691804 Z M28.6465413,54.7534678 C28.5018378,54.9907728 28.3170452,55.1355418 28.0975941,55.1840668 C28.0424918,55.1961578 27.9854728,55.2022838 27.927815,55.2022838 C27.3360637,55.2022838 26.5617558,54.5677507 26.2903967,53.5061653 C26.1317978,52.8858189 26.1939277,52.2582179 26.4565024,51.8274577 C26.6012059,51.5901526 26.7859985,51.4453836 27.0056093,51.3968586 C27.0613505,51.3846064 27.1166126,51.3788028 27.175069,51.3788028 C27.76698,51.3788028 28.5414476,52.0131747 28.8128067,53.0749214 C28.9714056,53.6949453 28.9092757,54.3225463 28.6465413,54.7534678 Z M53.273619,50.1374652 C52.6740415,49.1537454 51.7548704,48.4822946 50.6855654,48.2467629 C50.4073384,48.1853408 50.1211256,48.154388 49.8349128,48.154388 C47.7030108,48.154388 45.7134167,49.8848449 45.1042562,52.268858 C44.7276436,53.7423418 44.9239357,55.2637059 45.6429815,56.443299 C46.2428784,57.4270188 47.1618898,58.0646149 48.2310351,58.3001467 C48.5092621,58.3615687 48.7956346,58.3589893 49.0818474,58.3589893 C49.0821668,58.3589893 49.0820071,58.3589893 49.0821668,58.3589893 C51.2135897,58.3589893 53.2031838,56.6620646 53.812504,54.2778904 C54.1891166,52.8044065 53.9928245,51.3167359 53.273619,50.1374652 Z M50.7194254,53.5061653 C50.4480663,54.5677507 49.6737584,55.2022838 49.0820071,55.2022838 C49.0243493,55.2022838 48.9671706,55.1961578 48.912228,55.1840668 C48.6927769,55.1355418 48.508144,54.9907728 48.3632808,54.7534678 C48.1005464,54.3225463 48.0384165,53.6951065 48.1970154,53.0745989 C48.4683745,52.0130134 49.2428421,51.3786416 49.8347531,51.3786416 C49.8922512,51.3786416 49.9492702,51.3847676 50.0042128,51.3966974 C50.2238236,51.4452224 50.4084565,51.5899914 50.5533197,51.8272964 C50.8158944,52.2580567 50.8780243,52.8858189 50.7194254,53.5061653 Z M38.4431006,56.5148775 C34.4797242,56.5148775 31.2550387,59.9882046 31.2550387,64.2574387 C31.2550387,68.5266729 34.4795645,72 38.4431006,72 C42.4066367,72 45.6311624,68.5266729 45.6311624,64.2574387 C45.6311624,59.9882046 42.4066367,56.5148775 38.4431006,56.5148775 Z M38.4431006,68.7757464 C36.2409231,68.7757464 34.449378,66.7488195 34.449378,64.2574387 C34.449378,61.766058 36.2409231,59.739131 38.4431006,59.739131 C40.645278,59.739131 42.4368232,61.766058 42.4368232,64.2574387 C42.4368232,66.7488195 40.645278,68.7757464 38.4431006,68.7757464 Z" id="Shape"></path>
            </g>
        </g>
    </g>
</svg>